<svg width="56" height="50" viewBox="0 0 56 50" fill="none" xmlns="http://www.w3.org/2000/svg"><path d="M40.565 15.0573C36.9268 17.6142 32.6423 19.102 28.1985 19.3514H27.9062C23.4275 19.0849 19.1111 17.5827 15.4385 15.0125C12.5943 13.1513 8.90682 10.3484 9.23285 6.43554C9.45769 3.74473 12.3919 2.42176 14.5842 1.74906C15.506 1.46877 16.4391 1.23332 17.3722 1.04272C24.0175 -0.257846 30.8455 -0.333841 37.5183 0.818491H37.6082C38.6313 1.00909 39.6543 1.23332 40.6886 1.5024L41.543 1.74906C43.7353 2.42176 46.6695 3.74473 46.8943 6.43554C47.2316 10.3484 43.3305 13.1626 40.4862 15.0573H40.565Z" fill="#D7D1C6"></path><path d="M12.5493 17.6362C16.7717 19.4085 20.4376 22.2821 23.162 25.9552L23.2407 26.0674L23.3306 26.2019C25.6353 29.8457 26.2311 34.4761 26.2536 38.8263C26.2536 42.2458 25.6353 47.1453 22.5661 48.7822C20.194 50.0267 17.5071 48.3113 15.7533 46.8202C15.0226 46.2035 14.3143 45.5421 13.6398 44.8581C8.91013 39.9371 5.10259 34.2109 2.39755 27.9509V27.8724C1.99283 26.9082 1.61059 25.9216 1.27333 24.9013C1.18339 24.621 1.09347 24.3296 1.01478 24.0381C0.362728 21.7957 -0.109461 18.6228 1.94787 16.9523C5.00576 14.5193 9.50266 16.2571 12.6055 17.6362H12.5493Z" fill="#D7D1C6"></path><path d="M43.6228 17.6362C39.3954 19.4053 35.725 22.2794 32.9988 25.9552L32.9202 26.0674L32.8302 26.2019C30.5256 29.8457 29.9297 34.4761 29.9072 38.8263C29.9072 42.2458 30.5255 47.1453 33.5947 48.7822C35.9668 50.0267 38.6537 48.3113 40.4075 46.8202C41.1382 46.2035 41.8465 45.5421 42.521 44.8581C47.2549 39.9404 51.0629 34.2135 53.7633 27.9509V27.8724C54.168 26.9082 54.5502 25.9216 54.8875 24.9013L55.1573 24.0381C55.8094 21.7957 56.2815 18.6228 54.213 16.9523C51.1551 14.5193 46.6582 16.2571 43.5666 17.6362H43.6228Z" fill="#D7D1C6"></path></svg>