<?xml version="1.0" encoding="UTF-8"?>
<svg xmlns="http://www.w3.org/2000/svg" viewBox="0 0 1886.4 523.1">
  <path d="m0 11.7q375.1 0 420.3 41.1c18.7 18.9 21 47.5 20.9 72.6v5.3 11 14 10.9 5.2c0 12.5-.6 24.3-4.9 36.1-.3.7-.5 1.4-.8 2.2-5.8 15.4-14.6 30.1-26.6 41.5-.6.6-1.3 1.2-2 1.9-22.6 20.6-48.1 29.8-78 33.1.6.3 1.2.7 1.9 1 3 1.6 5.9 3.2 8.9 4.8l3.3 1.8c6 3.3 12 6.5 18 9.8 6.7 3.7 13.5 7.4 20.4 10.7 26.8 13.1 47 30.5 56.9 59.3 2.6 7.9 2.8 15.3 2.7 23.6q0 1.8 0 3.7v7.9 11.4 27.3 61.6h-155q.1-48.6.2-63.8 0-4.6 0-9.1c0-2 0-4 0-6 .1-27.2-3.2-48.6-22.6-68.8-5-5-10.3-9.6-15.9-14-2.8-2.3-5.5-4.7-8.2-7.2-4.4-4-8.9-7.8-13.5-11.5-4.3-3.5-8.4-7.2-12.6-10.8-4.2-3.7-8.5-7.1-13-10.4-.5-.4-1-.8-1.4-1.3v-2q-.8-.4-1.6-.7c-3-1.6-5.5-3.6-8.1-5.8-1-.8-2-1.6-3-2.4-.7-.7-1.5-1.4-2.3-2.1v-2c-.5-.2-1-.4-1.6-.7-3.4-1.9-6.1-4.4-9-6.9-6-5.3-12.2-10.3-18.4-15.4q-.5 119.3-1 241h-154zm184.1 59.5c-2.9.5-5.8 1-8.7 1.4-2.7.4-5.3.9-8 1.3-2 .3-3.9.6-5.9 1q-1.8.3-3.6.6c-1.1.2-2.2.4-3.3.5q-2.7.4-4.6 2.6c.4 7.9 2.7 15.6 4.6 23.2.2.7.4 1.4.5 2.2 3 12 6.7 23.4 11.9 34.6.3.7.7 1.4 1 2.2 12.4 26.8 32.5 51.2 60.3 62.8 19.4 7.1 41.1 5.7 59.8-2.6 6.3-3 12.4-6.1 17.9-10.4-1.3-3.9-2.9-4.5-6.4-6.7-5.3-3.4-10.3-7-15.2-10.7-2.9-1.9-4.9-2.8-8.4-2.2-.7.2-1.4.5-2.2.7q-1.2.4-2.4.8c-.9.3-1.7.6-2.6.9-18.6 5.7-35.3 6.6-54.8 6.2l-1-2c1-.1 2-.2 3-.4 16.1-2.3 33.7-8.3 47-17.6-3.5-3.8-7.5-6.8-11.8-9.8-.7-.5-1.4-1-2.1-1.5-6.7-4.7-11.8-4.2-19.6-2.8-2 .4-4 .7-6 1.1-10.3 1.9-20.2 2.5-30.6 2q1-2 4.3-3.2c1.5-.5 2.9-.9 4.4-1.4.8-.2 1.6-.5 2.3-.7 2.5-.8 5-1.5 7.5-2.3 1.7-.5 3.4-1 5-1.6 4.1-1.3 8.3-2.5 12.4-3.8-2.3-2.4-4.5-4.5-7.2-6.4-.6-.4-1.2-.8-1.8-1.3-.6-.4-1.2-.9-1.8-1.3s-1.2-.9-1.8-1.3q-9.4-6.9-20.7-8.6c-1.3 0-2.5 0-3.8.1-1.3 0-2.6.1-4 .2-1.3 0-2.7.1-4 .2-3.3.1-6.5.3-9.8.4v-4c5.9-1.3 11.9-2.6 18-4-2.7-2.7-5.1-5-8.1-7.2-.7-.5-1.4-1-2.1-1.6q-1.7-1.4-3.8-1.2c.3-1 .7-2 1-3 5.7 1.7 10.7 4.3 16 7-.7-5.9-1.3-11.9-2-18q3 1 4.5 3.8t1.5 3.7c.5 1.3 1.1 2.6 1.6 3.8.9 2.1 1.7 4.3 2.6 6.4 3.4 8.2 8.2 11.7 15.9 15.7 4 2.1 7.9 4.3 11.8 6.6.7.3 1.5.7 2.2 1l2-1c-1.6-11.6-3.3-23.1-5-35 9.2 9.2 13.1 24.5 15.2 37 1.3 5.8 3.3 8.3 8.2 11.5.8.5 1.7 1 2.5 1.5.9.6 1.8 1.1 2.7 1.7q5.3 3.5 11.3 5.3c2.8-2.8 1.2-11.6 1.3-15.4 0-12.2-.4-25.9-4.3-37.6 4 3.6 6.1 6.8 8 11.8.2.7.5 1.3.8 2 4.9 13 9.8 26.8 10.4 40.8q.4 6.6 4.4 11.8c2.8 1.7 5.6 3.3 8.6 4.7 2.7 1.3 5.2 2.8 7.8 4.3 2.7 1.6 5.4 3.1 8.1 4.6 5-5 3.3-15.9 3.3-22.6-.1-9-1.4-16.8-4.3-25.4q-.5-1.4-.9-2.8c-7.5-20.7-23.9-34.2-43.2-43.4-26.2-12.1-57.8-14.1-85.8-9.3z" fill="#40ac48"></path>
  <path d="m1731 2.7c1.1 0 2.1.1 3.2.2 6 .4 11.9 1 17.8 1.8.7 0 1.4.2 2 .3q79.8 10.4 107 33.7c.6.5 1.2.9 1.8 1.4 14.7 11.8 21.1 30.4 23.2 48.6.3 4.8.3 9.7.3 14.5v4.3 11.6 12.5 24.5 19.9 2.9 5.8 54.1 49.5 50.9 28.5 24.3 12.4 11.4 6c0 12-1.5 24.5-6.6 35.4-.3.7-.6 1.3-.9 2-2.6 5.5-5.8 10-9.8 14.6-.6.8-1.3 1.6-1.9 2.5-9.2 11.1-24 18-37.1 23.5q-1.4.6-2.9 1.2c-74.9 30.5-181.3 24.4-325.2-4.6-9.2-3.9-17.2-8.2-24.9-14.7-.6-.4-1.1-.8-1.7-1.3-4.3-3.3-7.3-7.3-10.3-11.7-.4-.6-.9-1.2-1.3-1.8-10.9-16.2-11.8-35.1-11.8-54 0-1.4 0-2.7 0-4.1 0-3.7 0-7.5 0-11.2 0-4 0-8.1 0-12.1 0-8.8 0-17.6 0-26.4 0-5.5 0-11 0-16.5 0-15.3 0-30.6 0-45.9 0-1 0-2 0-3s0-2 0-3c0-2 0-4 0-6 0-1 0-2 0-3 0-15.9 0-31.9 0-47.8 0-16.4 0-32.8 0-49.2 0-9.2 0-18.4 0-27.6 0-7.8 0-15.7 0-23.5 0-4 0-8 0-12q-.2-57.7 20.7-79.9c11.2-10.4 24.5-15.4 38.8-20.1.7-.2 1.3-.4 2-.7 69.3-22.7 145.2-22.7 217.6-18.2zm-113.4 78.9c-5.9 7.9-6.2 17.3-6.1 26.8v4.1 11.1 12 23.5 27.3 48.8 47.3 51.6 5.5 2.7 19 23.2 11.8 10.8 5.8c0 11.5 2.3 21.3 10.4 29.8 16.3 13.2 37.7 16.4 58 15 9.5-1.3 18.5-4.5 27-9 .9-.4 1.7-.9 2.6-1.3 7.8-4.2 13.1-9.5 15.9-18 1.9-6.5 1.8-12.7 1.8-19.4 0-1.4 0-2.7 0-4.1 0-3.7 0-7.5 0-11.2 0-4 0-8.1 0-12.1 0-7.9 0-15.8 0-23.7 0-6.4 0-12.8 0-19.2 0-.9 0-1.8 0-2.8 0-1.9 0-3.7 0-5.6 0-18.3 0-36.6-.2-54.9 0-12.7 0-25.5-.1-38.2 0-20.6-.1-41.1-.2-61.7 0-6.2 0-12.4 0-18.7 0-7.6 0-15.2-.1-22.7 0-3.9 0-7.7 0-11.6 0-4.2 0-8.4 0-12.6 0-1.2 0-2.4 0-3.7-.1-11.4-2.2-20.4-10.4-28.6-2.9-2.3-5.8-4.2-9-6-.6-.4-1.2-.7-1.8-1.1-25.6-14.4-67.2-12.7-87.7 10z" fill="#5a5f65"></path>
  <path d="m792.7 5.2c3.2.4 6.3.9 9.5 1.2 33.9 4.3 75.9 10.8 101.8 35.2.8.7 1.5 1.4 2.3 2.2 17.9 18.1 19.8 42.6 19.8 66.8v4 11 11.9 23.2 18.9 53.7q0 1.4 0 2.9v2.9 46.9 48.2 27 23 11.7q0 26.9-1.1 39c0 .8-.1 1.5-.2 2.3-1.9 17-11.3 33.6-24.5 44.4-2.7 2-5.5 4-8.4 5.9-.7.5-1.5 1-2.2 1.5-69 44.3-185.4 35-309.8 19.5-8.5-2-16.8-4.3-25-7-.8-.2-1.5-.5-2.3-.7-21.5-7.1-41.2-17.9-52.4-38.4-7.6-15.4-8.4-31-8.4-47.9 0-1.4 0-2.8 0-4.2 0-3.8 0-7.6 0-11.4 0-4.1 0-8.2 0-12.3 0-8 0-16 0-24 0-6.5 0-13 0-19.5 0-18.5 0-37 0-55.5 0-1 0-2 0-3s0-2 0-3c0-16.2 0-32.3 0-48.5 0-16.6 0-33.2 0-49.8 0-9.3 0-18.6 0-27.9 0-7.9 0-15.9 0-23.8 0-4 0-8.1 0-12.1q-.1-57.5 20.5-78.4c3.7-3.4 7.4-6.2 11.8-8.6.7-.4 1.5-.8 2.2-1.3 14.9-7.9 31.6-12.3 47.8-16.7.9-.2 1.7-.5 2.6-.7 29.8-8.1 60.7-10.5 91.4-12.3q1.8-.1 3.7-.2c40-2.2 81.2-2 120.9 3.8zm-133.6 75.1c-7.2 9.4-8.8 19.8-8.7 31.2v4 11 11.9 23.3 18.9 2.7 5.5 51.3 44 51.1 5.5 2.7 18.9 23 11.7 10.8 5.7c.1 10.5 2.5 20 9.6 28 15.3 13.8 35.9 16.8 55.6 16.3 5.7-.3 11-1.5 16.5-3.1 1.2-.3 2.4-.7 3.6-1 11.6-3.7 20.1-9.2 27.1-19.3 3.1-6.3 3.7-12.9 4-19.8 0-.9 0-1.8.1-2.7.5-12.4.4-24.8.3-37.3 0-3.7 0-7.4 0-11.1 0-8.1 0-16.1 0-24.2 0-5 0-10.1 0-15.1 0-14 0-28-.1-42 0-.9 0-1.8 0-2.7 0-1.8 0-3.6 0-5.4 0-.9 0-1.8 0-2.7s0-1.8 0-2.7c0-14.6 0-29.2-.1-43.8 0-15 0-30-.1-45.1 0-8.4 0-16.8 0-25.3 0-7.2 0-14.3 0-21.5 0-3.6 0-7.3 0-10.9 0-4 0-7.9 0-11.9 0-1.1 0-2.3 0-3.5-.1-10.6-2.7-19.5-9.8-27.6-13.2-12.6-33.6-16.8-51.3-16.6-16.1.7-34.8 6-46.3 17.8z" fill="#5a5f65"></path>
  <g fill="#40ac48">
    <path d="m1303.8 7.1c1 .1 2 .3 3.1.4 10.7 1.5 21.4 3.3 32 5.7q1.3.3 2.7.6c17.8 4.1 39.1 14 49.7 29.4.9 1.5 1.9 3 2.8 4.6.4.6.8 1.3 1.2 1.9 5 9.1 6.3 19.2 6.5 29.4 0 1.1 0 2.1.1 3.2.4 13 .3 26.1.3 39.1v9.6 27.8 62.9h-146v-140c2.9-1 5.2-1.2 8.3-1.4 4.5-.4 7.8-1.1 11.7-3.6 2.8-4.2 2.8-8 2-13-2.2-3.1-3.6-4.6-7.3-5.6-2.9-.4-5.6-.5-8.5-.5q-1.7 0-3.5 0c-1.3 0-2.5 0-3.9 0s-2.7 0-4.1 0c-3.7 0-7.4 0-11.1 0-2.3 0-4.6 0-6.9 0-8 0-16.1 0-24.1 0-7.5 0-15 0-22.5 0-6.4 0-12.9 0-19.3 0-3.8 0-7.7 0-11.5 0-3.6 0-7.2 0-10.8 0-2 0-3.9 0-5.9 0q-9.6 0-18.5 3.4c-2.6 4.3-2.2 8.9-1.6 13.8q1.2 3.4 4.5 4.5c3.9.8 7.8 1 11.8 1.3q2.2.3 5.2 2.3.4 2.5.4 5.6v3.7 4.1 4.3 11.8 12.7 22.1 31.9 51.9 3.1 22 25.1 3.1 51.6 31.8 21.9 12.6 11.6 6.1c0 12.3 1.2 25.2 9.4 34.9 12.8 12.5 34.8 13.2 51.9 13.1 5.3-.2 10.5-.7 15.7-1.4 1-.1 2.1-.2 3.2-.3 9.5-1.1 19.6-3.1 26.3-10.4 6-9.6 7.3-19.3 7.6-30.4 0-1.1 0-2.2.1-3.3.4-12.5.5-25 .6-37.5 0-2.2 0-4.4 0-6.7 0-8.1.1-16.2.2-24.2.1-18.1.3-36.3.4-54.9h147q0 39.2-.4 51.3c0 1.4 0 2.8-.1 4.3-.1 3.7-.2 7.3-.3 11 0 2.3-.1 4.6-.2 6.8-.5 17.5-1.1 35.1-2 52.6 0 .7 0 1.4-.1 2.1-1 19.1-3.4 37-14.9 52.9h-2c-.3.6-.5 1.2-.8 1.8-5.5 10.4-18.5 16.2-29.2 19.8-3 .9-6 1.7-9 2.4-1 .3-2.1.5-3.1.8-26.6 6.7-53.5 11.6-80.9 13.2q-1.1 0-2.2.1-158.3 9.2-224.8-23.2c-1.9-.9-3.9-1.8-5.8-2.8-20.1-9.6-33.9-23.4-42.2-44.2-3.5-10.5-4.1-20.1-4.1-31.1 0-1.3 0-2.7 0-4 0-3.7 0-7.3 0-11 0-4 0-7.9 0-11.9 0-7.8 0-15.5 0-23.3 0-6.3 0-12.6 0-18.9 0-17.9 0-35.8 0-53.7 0-1 0-1.9 0-2.9s0-1.9 0-2.9c0-15.6 0-31.3 0-46.9 0-16.1 0-32.1 0-48.2 0-9 0-18 0-27 0-7.7 0-15.4 0-23 0-3.9 0-7.8 0-11.7q0-40.1 4.4-56.1c.2-.8.4-1.5.6-2.3 3.4-11.8 9-22.9 17.2-32 .6-.7 1.2-1.4 1.8-2.1 14.6-15.7 36.9-22.2 57.4-25.9.7-.1 1.3-.2 2-.4 78.9-14.3 160.2-16.5 239.6-5.3z"></path>
    <path d="m1231.8 399c6.4 5.1 10 10.6 11.2 18.7.7 8.2-.8 15.8-6.1 22.3-6.3 6.5-12.5 9-21.6 9.2-8.9-.3-14.8-2.1-21.4-8.5-6.3-8.2-6.7-16-6-26 1.2-6.1 4.3-11 9-15 10.9-6.8 23.9-8.8 34.8-.7z"></path>
    <path d="m1190.4 334.7c5 3 8.5 6.5 10.8 11.9 1.5 6.4.9 11.1-1.9 17-2.8 4.4-6.4 7.5-11.3 9.2q-12.6.9-18-3c-5.1-4.9-7.7-9.3-8.3-16.4.5-6.3 1.9-10.8 6.8-15 6.4-5.1 14.1-6.8 22-3.7z"></path>
    <path d="m1185.9 274.2c4.3 3.5 6.5 7.1 7.4 12.6.2 4.7-.8 8-3.3 11.9-4 4.1-7.6 6.1-13.3 6.2-4.3 0-7.1-.8-10.7-3.2-3.4-3.6-6-7-6-12.1.5-6.9 2.7-11.3 8-15.9 5.6-1.9 12.5-2.2 17.9.5z"></path>
    <path d="m1221.9 305.5c3.2 3.3 4.4 6 4.5 10.6-.1 4.6-1.2 7.2-4.4 10.6-4.5 2.7-8 3.5-13.1 2.6-3.4-1.2-5.4-3.1-7.9-5.6-1.7-5-1.9-10 .2-14.9 5.5-6.7 13.1-8 20.6-3.3z"></path>
  </g>
  <path d="m1231 228.7c2.7 2.1 3.7 3.6 4.4 6.9.3 3.9-.2 5.7-2.3 9.1-4.4 2.8-8.1 2.9-13.1 2-3.5-2.1-3.9-3.5-4.9-7.4 0-4.9 1.5-6.9 4.6-10.4 3.8-1.8 7.4-1.3 11.4-.1z" fill="#40ac49"></path>
</svg>
