<svg width="290" height="525" viewBox="0 0 290 525" fill="none" xmlns="http://www.w3.org/2000/svg">
<path d="M0.256606 508.27C-0.241644 517.162 7.02531 524.393 15.9307 524.393H138.17C147.076 524.393 154.295 517.174 154.295 508.268V406.542C154.295 397.636 161.514 390.417 170.419 390.417H273.643C282.548 390.417 289.768 383.198 289.768 374.292V253.76C289.768 244.854 282.541 237.589 273.649 238.071C240.067 239.894 208.012 247.375 178.432 259.557C167.226 264.172 154.295 256.293 154.295 244.174V168.773C154.295 159.868 161.514 152.649 170.419 152.649H273.643C282.548 152.649 289.768 145.429 289.768 136.524V15.9805C289.768 7.07506 282.536 -0.190322 273.643 0.291725C126.404 8.27344 8.41733 124.901 0.256776 270.489C-0.241608 279.381 7.02531 286.614 15.9307 286.614H74.4875C90.4319 286.614 97.8067 308.886 86.3813 320.008C36.5549 368.508 4.38006 434.686 0.256606 508.27Z" fill="#020202"/>
</svg>
